<svg xmlns="http://www.w3.org/2000/svg"  viewBox="0 0 512 512" width="512px" height="512px"><path fill="#463C4B" d="M464,448H48c-17.673,0-32-14.327-32-32V112h480v304C496,433.673,481.673,448,464,448z"/><path fill="#555A6E" d="M432,448H48c-17.673,0-32-14.327-32-32V112h448v304C464,433.673,449.673,448,432,448z"/><path fill="#463C4B" d="M272,448H48c-17.673,0-32-14.327-32-32V112h256V448z"/><path fill="#804B8F" d="M464,64H48c-17.673,0-32,14.327-32,32v16h480V96C496,78.327,481.673,64,464,64z"/><path fill="#9B5FAA" d="M432,64H48c-17.673,0-32,14.327-32,32v16h448V96C464,78.327,449.673,64,432,64z"/><circle cx="56" cy="88" r="8" fill="#91C83C"/><circle cx="88" cy="88" r="8" fill="#91C83C"/><circle cx="120" cy="88" r="8" fill="#91C83C"/><path fill="#5FAA46" d="M229.579,208L229.579,208c-4.326,0-8.193-2.676-9.733-6.718c-0.45-1.18-0.933-2.343-1.45-3.489 c-1.785-3.959-0.958-8.604,2.113-11.675l0.004-0.004c4.07-4.07,4.07-10.668,0-14.738l-7.889-7.889 c-2.035-2.035-4.702-3.052-7.369-3.052l0,0h-27.335c-1.219-1.72-1.919-3.806-1.919-6.013c0-5.756-4.666-10.422-10.421-10.422 h-43.157c-5.755,0-10.421,4.666-10.421,10.422c0,2.207-0.7,4.293-1.919,6.013H82.745l0,0c-2.667,0-5.334,1.017-7.369,3.052 l-7.889,7.889c-4.07,4.07-4.07,10.668,0,14.738l0.004,0.004c3.071,3.071,3.898,7.716,2.113,11.675 c-0.517,1.145-1,2.309-1.45,3.489c-1.541,4.042-5.407,6.718-9.733,6.718h0C52.666,208,48,212.666,48,218.422v11.157 C48,235.334,52.666,240,58.421,240h0c4.325,0,8.192,2.676,9.733,6.718c0.45,1.18,0.933,2.343,1.45,3.489 c1.785,3.959,0.958,8.604-2.113,11.675l-0.004,0.004c-4.07,4.07-4.07,10.668,0,14.738l7.889,7.889 c2.035,2.035,4.702,3.052,7.369,3.052l0,0h27.335c1.219,1.72,1.919,3.806,1.919,6.013v0c0,5.756,4.666,10.422,10.421,10.422 h43.157c5.755,0,10.421-4.666,10.421-10.422v0c0-2.207,0.7-4.293,1.919-6.013h27.335l0,0c2.667,0,5.334-1.017,7.369-3.052 l7.889-7.889c4.07-4.07,4.07-10.668,0-14.738l-0.004-0.004c-3.071-3.071-3.898-7.716-2.113-11.675 c0.517-1.145,1-2.309,1.45-3.489c1.541-4.042,5.407-6.718,9.733-6.718h0c5.755,0,10.421-4.666,10.421-10.422v-11.157 C240,212.666,235.334,208,229.579,208z M136.077,225.948c-0.62-7.867,2.556-15.014,7.891-19.807 c4.468,4.002,7.46,9.627,7.955,15.911c0.62,7.867-2.556,15.014-7.891,19.807C139.564,237.857,136.573,232.232,136.077,225.948z"/><path fill="#91C83C" d="M208,229.578v-11.157c0-5.756-4.666-10.422-10.422-10.422h0c-4.326,0-8.193-2.676-9.733-6.718 c-0.45-1.18-0.933-2.343-1.45-3.489c-1.785-3.959-0.958-8.604,2.113-11.675l0.004-0.004c4.07-4.07,4.07-10.668,0-14.738 l-7.889-7.889c-4.07-4.07-10.668-4.07-14.738,0l-0.004,0.004c-3.071,3.071-7.715,3.898-11.674,2.113 c-1.145-0.516-2.309-1-3.489-1.45c-4.042-1.54-6.718-5.407-6.718-9.733v0c0-5.756-4.666-10.422-10.422-10.422h-11.157 c-5.756,0-10.422,4.666-10.422,10.422v0c0,4.326-2.676,8.193-6.718,9.733c-1.18,0.45-2.343,0.933-3.489,1.45 c-3.959,1.785-8.604,0.958-11.674-2.113l-0.004-0.004c-4.07-4.07-10.668-4.07-14.738,0l-7.889,7.889 c-4.07,4.07-4.07,10.668,0,14.738l0.004,0.004c3.071,3.071,3.898,7.716,2.113,11.675c-0.516,1.145-1,2.309-1.45,3.489 c-1.54,4.042-5.407,6.718-9.733,6.718h0C52.666,208,48,212.666,48,218.422v11.157C48,235.334,52.666,240,58.422,240h0 c4.326,0,8.193,2.676,9.733,6.718c0.45,1.18,0.933,2.343,1.45,3.489c1.785,3.959,0.958,8.604-2.113,11.675l-0.004,0.004 c-4.07,4.07-4.07,10.668,0,14.738l7.889,7.889c4.07,4.07,10.668,4.07,14.738,0l0.004-0.004 c3.071-3.071,7.715-3.898,11.674-2.113c1.145,0.516,2.309,1,3.489,1.45c4.042,1.54,6.718,5.407,6.718,9.733v0 c0,5.756,4.666,10.422,10.422,10.422h11.157c5.756,0,10.422-4.666,10.422-10.422v0c0-4.326,2.676-8.193,6.718-9.733 c1.18-0.45,2.343-0.933,3.489-1.45c3.959-1.785,8.604-0.957,11.674,2.113l0.004,0.004c4.07,4.07,10.668,4.07,14.738,0 l7.889-7.889c4.07-4.07,4.07-10.668,0-14.738l-0.004-0.004c-3.071-3.071-3.898-7.716-2.113-11.675 c0.516-1.145,1-2.309,1.45-3.489c1.54-4.042,5.407-6.718,9.733-6.718h0C203.334,240,208,235.334,208,229.578z M151.923,222.052 c1.166,14.788-11.082,27.037-25.87,25.871c-11.633-0.917-21.058-10.342-21.976-21.975c-1.166-14.788,11.082-27.037,25.87-25.871 C141.581,200.994,151.006,210.419,151.923,222.052z"/><path fill="#A5C3DC" d="M104,408c-2.047,0-4.095-0.781-5.657-2.343l-32-32c-3.125-3.124-3.125-8.189,0-11.313l32-32 c3.124-3.124,8.189-3.124,11.313,0c3.125,3.124,3.125,8.189,0,11.313L83.314,368l26.343,26.343c3.125,3.124,3.125,8.189,0,11.313 C108.095,407.219,106.047,408,104,408z"/><path fill="#A5C3DC" d="M184,408c-2.047,0-4.095-0.781-5.657-2.343c-3.125-3.124-3.125-8.189,0-11.313L204.686,368 l-26.343-26.343c-3.125-3.124-3.125-8.189,0-11.313c3.124-3.124,8.189-3.124,11.313,0l32,32c3.125,3.124,3.125,8.189,0,11.313 l-32,32C188.095,407.219,186.047,408,184,408z"/><path fill="#A5C3DC" d="M127.994,408.002c-1.202,0-2.423-0.272-3.571-0.847c-3.952-1.976-5.554-6.781-3.578-10.733l32-64 c1.976-3.952,6.781-5.554,10.733-3.578c3.952,1.976,5.554,6.781,3.578,10.733l-32,64 C133.754,406.381,130.928,408.002,127.994,408.002z"/><g><path fill="#91C83C" d="M344,192h-48c-4.418,0-8-3.582-8-8v0c0-4.418,3.582-8,8-8h48c4.418,0,8,3.582,8,8v0 C352,188.418,348.418,192,344,192z"/><path fill="#463C4B" d="M360,352h-64c-4.418,0-8-3.582-8-8l0,0c0-4.418,3.582-8,8-8h64c4.418,0,8,3.582,8,8l0,0 C368,348.418,364.418,352,360,352z"/><path fill="#463C4B" d="M408,384H296c-4.418,0-8-3.582-8-8l0,0c0-4.418,3.582-8,8-8h112c4.418,0,8,3.582,8,8l0,0 C416,380.418,412.418,384,408,384z"/><path fill="#463C4B" d="M440,352h-48c-4.418,0-8-3.582-8-8l0,0c0-4.418,3.582-8,8-8h48c4.418,0,8,3.582,8,8l0,0 C448,348.418,444.418,352,440,352z"/><path fill="#91C83C" d="M360,224h-48c-4.418,0-8-3.582-8-8v0c0-4.418,3.582-8,8-8h48c4.418,0,8,3.582,8,8v0 C368,220.418,364.418,224,360,224z"/><path fill="#D7E6F0" d="M440,224h-48c-4.418,0-8-3.582-8-8v0c0-4.418,3.582-8,8-8h48c4.418,0,8,3.582,8,8v0 C448,220.418,444.418,224,440,224z"/><path fill="#91C83C" d="M360,256h-48c-4.418,0-8-3.582-8-8v0c0-4.418,3.582-8,8-8h48c4.418,0,8,3.582,8,8v0 C368,252.418,364.418,256,360,256z"/><path fill="#D7E6F0" d="M440,256h-48c-4.418,0-8-3.582-8-8v0c0-4.418,3.582-8,8-8h48c4.418,0,8,3.582,8,8v0 C448,252.418,444.418,256,440,256z"/><path fill="#91C83C" d="M360,288h-48c-4.418,0-8-3.582-8-8l0,0c0-4.418,3.582-8,8-8h48c4.418,0,8,3.582,8,8l0,0 C368,284.418,364.418,288,360,288z"/><path fill="#D7E6F0" d="M440,288h-48c-4.418,0-8-3.582-8-8l0,0c0-4.418,3.582-8,8-8h48c4.418,0,8,3.582,8,8l0,0 C448,284.418,444.418,288,440,288z"/></g></svg>