<svg xmlns="http://www.w3.org/2000/svg"  viewBox="0 0 64 64" width="512px" height="512px"><path fill="#0A5078" d="M58,52H6c-1.105,0-2-0.895-2-2V18h56v32C60,51.105,59.105,52,58,52z"/><path fill="#00A0C8" d="M60,18H4v-4c0-1.105,0.895-2,2-2h52c1.105,0,2,0.895,2,2V18z"/><path fill="#00325A" d="M28,52H6c-1.105,0-2-0.895-2-2V18h24V52z"/><circle cx="56" cy="15" r="1" fill="#FAB400"/><circle cx="52" cy="15" r="1" fill="#C80A50"/><circle cx="48" cy="15" r="1" fill="#00143C"/><path fill="#C80A50" d="M37,24h-6c-0.552,0-1-0.448-1-1v0c0-0.552,0.448-1,1-1h6c0.552,0,1,0.448,1,1v0 C38,23.552,37.552,24,37,24z"/><path fill="#C80A50" d="M41,28h-6c-0.552,0-1-0.448-1-1v0c0-0.552,0.448-1,1-1h6c0.552,0,1,0.448,1,1v0 C42,27.552,41.552,28,41,28z"/><path fill="#FAB400" d="M49,28h-4c-0.552,0-1-0.448-1-1v0c0-0.552,0.448-1,1-1h4c0.552,0,1,0.448,1,1v0 C50,27.552,49.552,28,49,28z"/><path fill="#C80A50" d="M41,32h-6c-0.552,0-1-0.448-1-1v0c0-0.552,0.448-1,1-1h6c0.552,0,1,0.448,1,1v0 C42,31.552,41.552,32,41,32z"/><path fill="#FAB400" d="M55,32H45c-0.552,0-1-0.448-1-1v0c0-0.552,0.448-1,1-1h10c0.552,0,1,0.448,1,1v0 C56,31.552,55.552,32,55,32z"/><path fill="#C80A50" d="M41,36h-6c-0.552,0-1-0.448-1-1l0,0c0-0.552,0.448-1,1-1h6c0.552,0,1,0.448,1,1l0,0 C42,35.552,41.552,36,41,36z"/><path fill="#00A0C8" d="M45,42H31c-0.552,0-1-0.448-1-1l0,0c0-0.552,0.448-1,1-1h14c0.552,0,1,0.448,1,1l0,0 C46,41.552,45.552,42,45,42z"/><path fill="#00A0C8" d="M49,46H31c-0.552,0-1-0.448-1-1l0,0c0-0.552,0.448-1,1-1h18c0.552,0,1,0.448,1,1l0,0 C50,45.552,49.552,46,49,46z"/><path fill="#00A0C8" d="M55,42h-6c-0.552,0-1-0.448-1-1l0,0c0-0.552,0.448-1,1-1h6c0.552,0,1,0.448,1,1l0,0 C56,41.552,55.552,42,55,42z"/><path fill="#FAB400" d="M55,36H45c-0.552,0-1-0.448-1-1l0,0c0-0.552,0.448-1,1-1h10c0.552,0,1,0.448,1,1l0,0 C56,35.552,55.552,36,55,36z"/><g><path fill="#00143C" d="M22,31h1c0.552,0,1-0.448,1-1v-4c0-0.552-0.448-1-1-1H9c-0.552,0-1,0.448-1,1v4c0,0.552,0.448,1,1,1h1v2 H9c-0.552,0-1,0.448-1,1v4c0,0.552,0.448,1,1,1h1v2H9c-0.552,0-1,0.448-1,1v4c0,0.552,0.448,1,1,1h14c0.552,0,1-0.448,1-1v-4 c0-0.552-0.448-1-1-1h-1v-2h1c0.552,0,1-0.448,1-1v-4c0-0.552-0.448-1-1-1h-1V31z"/></g><g><path fill="#00A0C8" d="M23,30H9c-0.552,0-1-0.448-1-1v-4c0-0.552,0.448-1,1-1h14c0.552,0,1,0.448,1,1v4 C24,29.552,23.552,30,23,30z"/><path fill="#00648C" d="M17,28h-6c-0.552,0-1-0.448-1-1v0c0-0.552,0.448-1,1-1h6c0.552,0,1,0.448,1,1v0 C18,27.552,17.552,28,17,28z"/><circle cx="21" cy="27" r="1" fill="#FAB400"/><path fill="#00A0C8" d="M23,38H9c-0.552,0-1-0.448-1-1v-4c0-0.552,0.448-1,1-1h14c0.552,0,1,0.448,1,1v4 C24,37.552,23.552,38,23,38z"/><path fill="#00648C" d="M17,36h-6c-0.552,0-1-0.448-1-1l0,0c0-0.552,0.448-1,1-1h6c0.552,0,1,0.448,1,1l0,0 C18,35.552,17.552,36,17,36z"/><circle cx="21" cy="35" r="1" fill="#FAB400"/><path fill="#00A0C8" d="M23,46H9c-0.552,0-1-0.448-1-1v-4c0-0.552,0.448-1,1-1h14c0.552,0,1,0.448,1,1v4 C24,45.552,23.552,46,23,46z"/><path fill="#00648C" d="M17,44h-6c-0.552,0-1-0.448-1-1l0,0c0-0.552,0.448-1,1-1h6c0.552,0,1,0.448,1,1l0,0 C18,43.552,17.552,44,17,44z"/><circle cx="21" cy="43" r="1" fill="#FAB400"/></g><g><rect width="12" height="2" x="10" y="30" fill="#C80A50"/></g><g><rect width="12" height="1" x="10" y="30" fill="#A00028"/></g><g><rect width="12" height="2" x="10" y="38" fill="#C80A50"/></g><g><rect width="12" height="1" x="10" y="38" fill="#A00028"/></g></svg>