<?xml version="1.0" encoding="iso-8859-1"?><!-- Generator: Adobe Illustrator 21.1.0, SVG Export Plug-In . SVG Version: 6.00 Build 0)  --><svg xmlns="http://www.w3.org/2000/svg" xmlns:xlink="http://www.w3.org/1999/xlink" viewBox="0 0 50 50" width="500px" height="500px"><path d="M43,4H7C5.346,4,4,5.346,4,7v36c0,1.654,1.346,3,3,3h36c1.654,0,3-1.346,3-3V7C46,5.346,44.654,4,43,4z M31,8c0.553,0,1,0.448,1,1s-0.447,1-1,1s-1-0.448-1-1S30.447,8,31,8z M27,8c0.553,0,1,0.448,1,1s-0.447,1-1,1s-1-0.448-1-1S26.447,8,27,8z M23,8c0.552,0,1,0.448,1,1s-0.448,1-1,1s-1-0.448-1-1S22.448,8,23,8z M19,8c0.552,0,1,0.448,1,1s-0.448,1-1,1s-1-0.448-1-1S18.448,8,19,8z M15,8c0.552,0,1,0.448,1,1s-0.448,1-1,1s-1-0.448-1-1S14.448,8,15,8z M9,36c-0.552,0-1-0.447-1-1s0.448-1,1-1s1,0.447,1,1S9.552,36,9,36z M9,32c-0.552,0-1-0.447-1-1s0.448-1,1-1s1,0.447,1,1S9.552,32,9,32z M9,28c-0.552,0-1-0.447-1-1s0.448-1,1-1s1,0.447,1,1S9.552,28,9,28z M9,24c-0.552,0-1-0.448-1-1s0.448-1,1-1s1,0.448,1,1S9.552,24,9,24z M9,20c-0.552,0-1-0.448-1-1s0.448-1,1-1s1,0.448,1,1S9.552,20,9,20z M9,16c-0.552,0-1-0.448-1-1s0.448-1,1-1s1,0.448,1,1S9.552,16,9,16z M15,42c-0.552,0-1-0.447-1-1s0.448-1,1-1s1,0.447,1,1S15.552,42,15,42z M19,42c-0.552,0-1-0.447-1-1s0.448-1,1-1s1,0.447,1,1S19.552,42,19,42z M23,42c-0.552,0-1-0.447-1-1s0.448-1,1-1s1,0.447,1,1S23.552,42,23,42z M27,42c-0.553,0-1-0.447-1-1s0.447-1,1-1s1,0.447,1,1S27.553,42,27,42z M31,42c-0.553,0-1-0.447-1-1s0.447-1,1-1s1,0.447,1,1S31.553,42,31,42z M34,35H16c-0.552,0-1-0.447-1-1V16c0-0.552,0.448-1,1-1h18c0.553,0,1,0.448,1,1v18C35,34.553,34.553,35,34,35z M35,42c-0.553,0-1-0.447-1-1s0.447-1,1-1s1,0.447,1,1S35.553,42,35,42z M35,10c-0.553,0-1-0.448-1-1s0.447-1,1-1s1,0.448,1,1S35.553,10,35,10z M41,36c-0.553,0-1-0.447-1-1s0.447-1,1-1s1,0.447,1,1S41.553,36,41,36z M41,32c-0.553,0-1-0.447-1-1s0.447-1,1-1s1,0.447,1,1S41.553,32,41,32z M41,28c-0.553,0-1-0.447-1-1s0.447-1,1-1s1,0.447,1,1S41.553,28,41,28z M41,24c-0.553,0-1-0.448-1-1s0.447-1,1-1s1,0.448,1,1S41.553,24,41,24z M41,20c-0.553,0-1-0.448-1-1s0.447-1,1-1s1,0.448,1,1S41.553,20,41,20z M41,16c-0.553,0-1-0.448-1-1s0.447-1,1-1s1,0.448,1,1S41.553,16,41,16z"/><rect x="17" y="17" width="16" height="16"/></svg>