<svg xmlns="http://www.w3.org/2000/svg"  viewBox="0 0 100 100" width="500px" height="500px"><path fill-opacity=".35" d="M64.5,94c-1.745,0-3.331-0.691-4.5-1.813C58.831,93.309,57.245,94,55.5,94h-7	c-1.745,0-3.331-0.691-4.5-1.813C42.831,93.309,41.245,94,39.5,94h-7c-3.584,0-6.5-2.916-6.5-6.5v-0.606	c-4.592-0.66-8.233-4.302-8.894-8.894H16.5c-3.584,0-6.5-2.916-6.5-6.5v-7c0-1.745,0.691-3.331,1.813-4.5	C10.691,58.831,10,57.245,10,55.5v-7c0-1.745,0.691-3.331,1.813-4.5C10.691,42.831,10,41.245,10,39.5v-7c0-3.584,2.916-6.5,6.5-6.5	h0.606c0.66-4.592,4.302-8.233,8.894-8.894V16.5c0-3.584,2.916-6.5,6.5-6.5h7c1.745,0,3.331,0.691,4.5,1.813	C45.169,10.691,46.755,10,48.5,10h7c1.745,0,3.331,0.691,4.5,1.813C61.169,10.691,62.755,10,64.5,10h7c3.584,0,6.5,2.916,6.5,6.5	v0.606c4.592,0.66,8.233,4.302,8.894,8.894H87.5c3.584,0,6.5,2.916,6.5,6.5v7c0,1.745-0.691,3.331-1.813,4.5	C93.309,45.169,94,46.755,94,48.5v7c0,1.745-0.691,3.331-1.813,4.5C93.309,61.169,94,62.755,94,64.5v7c0,3.584-2.916,6.5-6.5,6.5	h-0.606c-0.66,4.592-4.302,8.233-8.894,8.894V87.5c0,3.584-2.916,6.5-6.5,6.5H64.5z"/><path fill="#f2f2f2" d="M62.5,92c-1.745,0-3.331-0.691-4.5-1.813C56.831,91.309,55.245,92,53.5,92h-7	c-1.745,0-3.331-0.691-4.5-1.813C40.831,91.309,39.245,92,37.5,92h-7c-3.584,0-6.5-2.916-6.5-6.5v-0.606	c-4.592-0.66-8.233-4.302-8.894-8.894H14.5C10.916,76,8,73.084,8,69.5v-7c0-1.745,0.691-3.331,1.813-4.5	C8.691,56.831,8,55.245,8,53.5v-7c0-1.745,0.691-3.331,1.813-4.5C8.691,40.831,8,39.245,8,37.5v-7c0-3.584,2.916-6.5,6.5-6.5h0.606	c0.66-4.592,4.302-8.233,8.894-8.894V14.5c0-3.584,2.916-6.5,6.5-6.5h7c1.745,0,3.331,0.691,4.5,1.813C43.169,8.691,44.755,8,46.5,8	h7c1.745,0,3.331,0.691,4.5,1.813C59.169,8.691,60.755,8,62.5,8h7c3.584,0,6.5,2.916,6.5,6.5v0.606	c4.592,0.66,8.233,4.302,8.894,8.894H85.5c3.584,0,6.5,2.916,6.5,6.5v7c0,1.745-0.691,3.331-1.813,4.5	C91.309,43.169,92,44.755,92,46.5v7c0,1.745-0.691,3.331-1.813,4.5C91.309,59.169,92,60.755,92,62.5v7c0,3.584-2.916,6.5-6.5,6.5	h-0.606c-0.66,4.592-4.302,8.233-8.894,8.894V85.5c0,3.584-2.916,6.5-6.5,6.5H62.5z"/><path fill="#f9b84f" d="M85.5,37.5v-7h-7v-5c0-2.209-1.791-4-4-4h-5v-7h-7v7h-9v-7h-7v7h-9v-7h-7v7h-5c-2.209,0-4,1.791-4,4	v5h-7v7h7v9h-7v7h7v9h-7v7h7v5c0,2.209,1.791,4,4,4h5v7h7v-7h9v7h7v-7h9v7h7v-7h5c2.209,0,4-1.791,4-4v-5h7v-7h-7v-9h7v-7h-7v-9	H85.5z"/><path fill="#96c362" d="M75,77H25c-1.105,0-2-0.895-2-2V25c0-1.105,0.895-2,2-2h50c1.105,0,2,0.895,2,2v50	C77,76.105,76.105,77,75,77z"/><rect width="28" height="28" x="36" y="36" fill="#146164"/><path fill="#40396e" d="M69.5,87h-7c-0.828,0-1.5-0.672-1.5-1.5V80h-6v5.5c0,0.828-0.672,1.5-1.5,1.5h-7	c-0.828,0-1.5-0.672-1.5-1.5V80h-6v5.5c0,0.828-0.672,1.5-1.5,1.5h-7c-0.828,0-1.5-0.672-1.5-1.5V80h-3.5	c-3.032,0-5.5-2.468-5.5-5.5V71h-5.5c-0.828,0-1.5-0.672-1.5-1.5v-7c0-0.828,0.672-1.5,1.5-1.5H20v-6h-5.5	c-0.828,0-1.5-0.672-1.5-1.5v-7c0-0.828,0.672-1.5,1.5-1.5H20v-6h-5.5c-0.828,0-1.5-0.672-1.5-1.5v-7c0-0.828,0.672-1.5,1.5-1.5H20	v-3.5c0-3.032,2.468-5.5,5.5-5.5H29v-5.5c0-0.828,0.672-1.5,1.5-1.5h7c0.828,0,1.5,0.672,1.5,1.5V20h6v-5.5	c0-0.828,0.672-1.5,1.5-1.5h7c0.828,0,1.5,0.672,1.5,1.5V20h6v-5.5c0-0.828,0.672-1.5,1.5-1.5h7c0.828,0,1.5,0.672,1.5,1.5V20h3.5	c3.032,0,5.5,2.468,5.5,5.5V29h5.5c0.828,0,1.5,0.672,1.5,1.5v7c0,0.828-0.672,1.5-1.5,1.5H80v6h5.5c0.828,0,1.5,0.672,1.5,1.5v7	c0,0.828-0.672,1.5-1.5,1.5H80v6h5.5c0.828,0,1.5,0.672,1.5,1.5v7c0,0.828-0.672,1.5-1.5,1.5H80v3.5c0,3.032-2.468,5.5-5.5,5.5H71	v5.5C71,86.328,70.328,87,69.5,87z M64,84h4v-5.5c0-0.828,0.672-1.5,1.5-1.5h5c1.379,0,2.5-1.121,2.5-2.5v-5	c0-0.828,0.672-1.5,1.5-1.5H84v-4h-5.5c-0.828,0-1.5-0.672-1.5-1.5v-9c0-0.828,0.672-1.5,1.5-1.5H84v-4h-5.5	c-0.828,0-1.5-0.672-1.5-1.5v-9c0-0.828,0.672-1.5,1.5-1.5H84v-4h-5.5c-0.828,0-1.5-0.672-1.5-1.5v-5c0-1.379-1.121-2.5-2.5-2.5h-5	c-0.828,0-1.5-0.672-1.5-1.5V16h-4v5.5c0,0.828-0.672,1.5-1.5,1.5h-9c-0.828,0-1.5-0.672-1.5-1.5V16h-4v5.5	c0,0.828-0.672,1.5-1.5,1.5h-9c-0.828,0-1.5-0.672-1.5-1.5V16h-4v5.5c0,0.828-0.672,1.5-1.5,1.5h-5c-1.379,0-2.5,1.121-2.5,2.5v5	c0,0.828-0.672,1.5-1.5,1.5H16v4h5.5c0.828,0,1.5,0.672,1.5,1.5v9c0,0.828-0.672,1.5-1.5,1.5H16v4h5.5c0.828,0,1.5,0.672,1.5,1.5v9	c0,0.828-0.672,1.5-1.5,1.5H16v4h5.5c0.828,0,1.5,0.672,1.5,1.5v5c0,1.379,1.121,2.5,2.5,2.5h5c0.828,0,1.5,0.672,1.5,1.5V84h4v-5.5	c0-0.828,0.672-1.5,1.5-1.5h9c0.828,0,1.5,0.672,1.5,1.5V84h4v-5.5c0-0.828,0.672-1.5,1.5-1.5h9c0.828,0,1.5,0.672,1.5,1.5V84z"/></svg>