<?xml version="1.0" encoding="iso-8859-1"?>
<!-- Generator: Adobe Illustrator 19.1.1, SVG Export Plug-In . SVG Version: 6.00 Build 0)  -->
<svg version="1.1" id="Layer_1" xmlns="http://www.w3.org/2000/svg" xmlns:xlink="http://www.w3.org/1999/xlink" x="0px" y="0px"
	 viewBox="0 0 80 80" style="enable-background:new 0 0 80 80;" xml:space="preserve">
<g>
	<rect x="57.5" y="4.5" style="fill:#FFEEA3;" width="4" height="71"/>
	<path style="fill:#F5C276;" d="M61,5v70h-3V5H61 M62,4h-5v72h5V4L62,4z"/>
</g>
<g>
	<rect x="49.5" y="4.5" style="fill:#FFEEA3;" width="4" height="71"/>
	<path style="fill:#F5C276;" d="M53,5v70h-3V5H53 M54,4h-5v72h5V4L54,4z"/>
</g>
<g>
	<rect x="41.5" y="4.5" style="fill:#FFEEA3;" width="4" height="71"/>
	<path style="fill:#F5C276;" d="M45,5v70h-3V5H45 M46,4h-5v72h5V4L46,4z"/>
</g>
<g>
	<rect x="33.5" y="4.5" style="fill:#FFEEA3;" width="4" height="71"/>
	<path style="fill:#F5C276;" d="M37,5v70h-3V5H37 M38,4h-5v72h5V4L38,4z"/>
</g>
<g>
	<rect x="25.5" y="4.5" style="fill:#FFEEA3;" width="4" height="71"/>
	<path style="fill:#F5C276;" d="M29,5v70h-3V5H29 M30,4h-5v72h5V4L30,4z"/>
</g>
<g>
	<rect x="17.5" y="4.5" style="fill:#FFEEA3;" width="4" height="71"/>
	<path style="fill:#F5C276;" d="M21,5v70h-3V5H21 M22,4h-5v72h5V4L22,4z"/>
</g>
<g>
	<rect x="4.5" y="57.5" style="fill:#FFEEA3;" width="71" height="4"/>
	<path style="fill:#F5C276;" d="M75,58v3H5v-3H75 M76,57H4v5h72V57L76,57z"/>
</g>
<g>
	<rect x="4.5" y="49.5" style="fill:#FFEEA3;" width="71" height="4"/>
	<path style="fill:#F5C276;" d="M75,50v3H5v-3H75 M76,49H4v5h72V49L76,49z"/>
</g>
<g>
	<rect x="4.5" y="41.5" style="fill:#FFEEA3;" width="71" height="4"/>
	<path style="fill:#F5C276;" d="M75,42v3H5v-3H75 M76,41H4v5h72V41L76,41z"/>
</g>
<g>
	<rect x="4.5" y="33.5" style="fill:#FFEEA3;" width="71" height="4"/>
	<path style="fill:#F5C276;" d="M75,34v3H5v-3H75 M76,33H4v5h72V33L76,33z"/>
</g>
<g>
	<rect x="4.5" y="25.5" style="fill:#FFEEA3;" width="71" height="4"/>
	<path style="fill:#F5C276;" d="M75,26v3H5v-3H75 M76,25H4v5h72V25L76,25z"/>
</g>
<g>
	<rect x="4.5" y="17.5" style="fill:#FFEEA3;" width="71" height="4"/>
	<path style="fill:#F5C276;" d="M75,18v3H5v-3H75 M76,17H4v5h72V17L76,17z"/>
</g>
<g>
	<path style="fill:#99C99E;" d="M14.866,68.5c-1.856,0-3.366-1.51-3.366-3.367V14.867c0-1.856,1.51-3.367,3.366-3.367h50.268
		c1.856,0,3.366,1.51,3.366,3.367v50.267c0,1.856-1.51,3.367-3.366,3.367H14.866z"/>
	<g>
		<path style="fill:#5E9C76;" d="M65.133,12C66.714,12,68,13.286,68,14.867v50.267C68,66.714,66.714,68,65.133,68H14.867
			C13.286,68,12,66.714,12,65.133V14.867C12,13.286,13.286,12,14.867,12H65.133 M65.133,11H14.867C12.731,11,11,12.731,11,14.867
			v50.267C11,67.269,12.731,69,14.867,69h50.267C67.269,69,69,67.269,69,65.133V14.867C69,12.731,67.269,11,65.133,11L65.133,11z"/>
	</g>
</g>
<g>
	<rect x="25.5" y="31.5" style="fill:#4B6477;" width="29" height="17"/>
	<path style="fill:#36404D;" d="M54,32v16H26V32H54 M55,31H25v18h30V31L55,31z"/>
</g>
</svg>