<svg xmlns="http://www.w3.org/2000/svg"  viewBox="0 0 256 256" width="512px" height="512px"><g id="Layer_32"><path fill="#edf4fc" d="M52.992,38.172v120.136c0,2.516,2.04,4.556,4.556,4.556h140.903c2.516,0,4.556-2.04,4.556-4.556V38.172 H52.992z"/><path fill="#fcdd86" d="M188.454,49.824H67.546c-1.644,0-2.977,1.333-2.977,2.977v18.542c0,1.644,1.333,2.977,2.977,2.977h120.907 c1.644,0,2.977-1.333,2.977-2.977V52.801C191.431,51.157,190.098,49.824,188.454,49.824z"/><path fill="#fc657e" d="M96.454,84.824H67.546c-1.644,0-2.977,1.333-2.977,2.977v11.542c0,1.644,1.333,2.977,2.977,2.977h28.907 c1.644,0,2.977-1.333,2.977-2.977V87.801C99.431,86.157,98.098,84.824,96.454,84.824z"/><path fill="#70d6f9" d="M142.454,84.824h-28.907c-1.644,0-2.977,1.333-2.977,2.977v11.542c0,1.644,1.333,2.977,2.977,2.977h28.907 c1.644,0,2.977-1.333,2.977-2.977V87.801C145.431,86.157,144.098,84.824,142.454,84.824z"/><path fill="#f5c84c" d="M188.454,84.824h-28.907c-1.644,0-2.977,1.333-2.977,2.977v11.542c0,1.644,1.333,2.977,2.977,2.977h28.907 c1.644,0,2.977-1.333,2.977-2.977V87.801C191.431,86.157,190.098,84.824,188.454,84.824z"/><path fill="#fc657e" d="M227.991,14.551c-4.149,0.773-7.419,3.976-8.208,8.041c-0.04,0.204-0.325,0.204-0.364,0 c-0.789-4.065-4.059-7.268-8.208-8.041c-0.208-0.039-0.208-0.318,0-0.357c4.149-0.773,7.419-3.976,8.208-8.041 c0.04-0.204,0.325-0.204,0.364,0c0.789,4.065,4.059,7.268,8.208,8.041C228.2,14.233,228.2,14.512,227.991,14.551z"/><path fill="#f5c84c" d="M196.183,235.639c-3.221,0.6-5.76,3.087-6.372,6.243c-0.031,0.159-0.252,0.159-0.283,0 c-0.612-3.156-3.151-5.643-6.372-6.243c-0.162-0.03-0.162-0.247,0-0.277c3.221-0.6,5.76-3.087,6.372-6.243 c0.031-0.159,0.252-0.159,0.283,0c0.612,3.156,3.151,5.643,6.372,6.243C196.344,235.392,196.344,235.608,196.183,235.639z"/><path fill="#70d6f9" d="M69.528,237.758h-1.824v-1.824c0-1.366-1.107-2.473-2.473-2.473s-2.473,1.107-2.473,2.473v1.824h-1.824 c-1.366,0-2.473,1.107-2.473,2.473s1.107,2.473,2.473,2.473h1.824v1.824c0,1.366,1.107,2.473,2.473,2.473 s2.473-1.107,2.473-2.473v-1.824h1.824c1.366,0,2.473-1.107,2.473-2.473S70.893,237.758,69.528,237.758z"/><circle cx="43.439" cy="230.627" r="3.377" fill="#fc657e"/><circle cx="193.439" cy="3.377" r="3.377" fill="#f5c84c"/><circle cx="37.439" cy="41.377" r="3.377" fill="#87d147"/><path fill="#edf4fc" d="M166.421,243.004H89.579c-2.898,0-5.248,2.35-5.248,5.248c0,2.898,2.35,5.248,5.248,5.248h76.841 c2.898,0,5.248-2.35,5.248-5.248C171.669,245.354,169.319,243.004,166.421,243.004z"/><rect width="42.43" height="24.051" x="106.785" y="218.953" fill="#c7d7e5"/><path fill="#5290db" d="M223.616,56.486h-20.609v101.822c0,2.516-2.04,4.556-4.556,4.556H57.548c-2.516,0-4.556-2.04-4.556-4.556 V56.486H32.384c-6.162,0-11.204,5.042-11.204,11.204v140.057c0,6.163,5.042,11.205,11.204,11.205h191.232 c6.162,0,11.204-5.042,11.204-11.205V67.691C234.821,61.528,229.778,56.486,223.616,56.486z"/><path fill="#edf4fc" d="M21.179,189.074v18.674c0,6.163,5.042,11.205,11.205,11.205h191.232c6.162,0,11.205-5.042,11.205-11.205 v-18.674H21.179z"/><path fill="#70d6f9" d="M223.616,65.823h-20.609v92.485c0,2.516-2.04,4.556-4.556,4.556H57.548c-2.516,0-4.556-2.04-4.556-4.556 V65.823H32.384c-1.027,0-1.867,0.84-1.867,1.867v121.383h194.967V67.691C225.484,66.664,224.643,65.823,223.616,65.823z"/><rect width="194.967" height="10.496" x="30.517" y="178.578" fill="#5290db"/><path fill="#c7d7e5" d="M128,198.487c-3.052,0-5.526,2.474-5.526,5.527l0,0c0,3.052,2.474,5.527,5.526,5.527 s5.526-2.474,5.526-5.527l0,0C133.526,200.961,131.052,198.487,128,198.487z"/><rect width="22.064" height="10.496" x="30.517" y="178.578" fill="#fcdd86"/><path d="M166.421,256H89.579c-4.272,0-7.748-3.476-7.748-7.748s3.476-7.748,7.748-7.748h76.842c4.272,0,7.748,3.476,7.748,7.748 S170.693,256,166.421,256z M89.579,245.504c-1.515,0-2.748,1.233-2.748,2.748S88.064,251,89.579,251h76.842 c1.515,0,2.748-1.233,2.748-2.748s-1.232-2.748-2.748-2.748H89.579z"/><path d="M149.215,244.504c-1.381,0-2.5-1.119-2.5-2.5v-22.051c0-1.381,1.119-2.5,2.5-2.5s2.5,1.119,2.5,2.5v22.051 C151.715,243.385,150.596,244.504,149.215,244.504z"/><path d="M106.785,244.504c-1.381,0-2.5-1.119-2.5-2.5v-22.051c0-1.381,1.119-2.5,2.5-2.5s2.5,1.119,2.5,2.5v22.051 C109.285,243.385,108.166,244.504,106.785,244.504z"/><path d="M21.18,192.667c-1.381,0-2.5-1.119-2.5-2.5V67.691c0-7.557,6.147-13.705,13.704-13.705h19.929 c1.381,0,2.5,1.119,2.5,2.5s-1.119,2.5-2.5,2.5H32.384c-4.799,0-8.704,3.905-8.704,8.705v122.476 C23.68,191.548,22.561,192.667,21.18,192.667z"/><path d="M234.82,192.417c-1.381,0-2.5-1.119-2.5-2.5V67.691c0-4.8-3.905-8.705-8.704-8.705h-19.824c-1.381,0-2.5-1.119-2.5-2.5 s1.119-2.5,2.5-2.5h19.824c7.557,0,13.704,6.148,13.704,13.705v122.227C237.32,191.298,236.201,192.417,234.82,192.417z"/><path d="M223.616,221.453H32.384c-7.557,0-13.705-6.148-13.705-13.705v-18.674c0-1.381,1.119-2.5,2.5-2.5h213.642 c1.381,0,2.5,1.119,2.5,2.5v18.674C237.321,215.305,231.173,221.453,223.616,221.453z M23.679,191.574v16.174 c0,4.8,3.905,8.705,8.705,8.705h191.232c4.8,0,8.705-3.905,8.705-8.705v-16.174H23.679z"/><path d="M30.517,190.574c-1.381,0-2.5-1.119-2.5-2.5V67.691c0-2.408,1.959-4.368,4.367-4.368h19.609c1.381,0,2.5,1.119,2.5,2.5 s-1.119,2.5-2.5,2.5H33.017v119.75C33.017,189.455,31.897,190.574,30.517,190.574z"/><path d="M225.483,190.574c-1.381,0-2.5-1.119-2.5-2.5V68.323h-18.976c-1.381,0-2.5-1.119-2.5-2.5s1.119-2.5,2.5-2.5h19.609 c2.408,0,4.367,1.959,4.367,4.368v120.383C227.983,189.455,226.864,190.574,225.483,190.574z"/><path d="M224.542,181.078H31.25c-1.381,0-2.5-1.119-2.5-2.5s1.119-2.5,2.5-2.5h193.292c1.381,0,2.5,1.119,2.5,2.5 S225.923,181.078,224.542,181.078z"/><path d="M128,212.04c-4.426,0-8.026-3.601-8.026-8.026s3.601-8.027,8.026-8.027s8.026,3.601,8.026,8.027 S132.426,212.04,128,212.04z M128,200.986c-1.669,0-3.026,1.358-3.026,3.027s1.357,3.026,3.026,3.026s3.026-1.357,3.026-3.026 S129.669,200.986,128,200.986z"/><path d="M52.581,190.875c-1.381,0-2.5-1.119-2.5-2.5v-9.25c0-1.381,1.119-2.5,2.5-2.5s2.5,1.119,2.5,2.5v9.25 C55.081,189.756,53.962,190.875,52.581,190.875z"/><path fill="#5290db" d="M198.452,18.188H57.548c-2.516,0-4.556,2.04-4.556,4.556v15.429h150.015V22.743 C203.008,20.227,200.968,18.188,198.452,18.188z"/><path fill="#fc657e" d="M72.262,18.188H57.548c-2.516,0-4.556,2.04-4.556,4.556v15.429h19.269V18.188z"/><path d="M172.604,30.68H84.252c-1.381,0-2.5-1.119-2.5-2.5s1.119-2.5,2.5-2.5h88.353c1.381,0,2.5,1.119,2.5,2.5 S173.985,30.68,172.604,30.68z"/><path d="M192.978,30.68h-9.322c-1.381,0-2.5-1.119-2.5-2.5s1.119-2.5,2.5-2.5h9.322c1.381,0,2.5,1.119,2.5,2.5 S194.358,30.68,192.978,30.68z"/><path d="M198.452,165.364H57.548c-3.891,0-7.056-3.165-7.056-7.056V38.172c0-1.381,1.119-2.5,2.5-2.5s2.5,1.119,2.5,2.5v120.136 c0,1.133,0.922,2.056,2.056,2.056h140.903c1.133,0,2.056-0.922,2.056-2.056V38.172c0-1.381,1.119-2.5,2.5-2.5s2.5,1.119,2.5,2.5 v120.136C205.507,162.199,202.342,165.364,198.452,165.364z"/><path d="M203.007,40.672H52.993c-1.381,0-2.5-1.119-2.5-2.5V22.743c0-3.891,3.165-7.056,7.056-7.056h140.903 c3.891,0,7.056,3.165,7.056,7.056v15.429C205.507,39.553,204.388,40.672,203.007,40.672z M55.493,35.672h145.015V22.743 c0-1.133-0.922-2.056-2.056-2.056H57.548c-1.133,0-2.056,0.922-2.056,2.056V35.672z"/><path d="M72.262,39.969c-1.381,0-2.5-1.119-2.5-2.5V18.917c0-1.381,1.119-2.5,2.5-2.5s2.5,1.119,2.5,2.5v18.553 C74.762,38.85,73.643,39.969,72.262,39.969z"/><path d="M188.454,76.821H67.546c-3.02,0-5.477-2.457-5.477-5.478V52.801c0-3.02,2.457-5.477,5.477-5.477h120.907 c3.02,0,5.477,2.457,5.477,5.477v18.542C193.931,74.364,191.474,76.821,188.454,76.821z M67.546,52.324 c-0.263,0-0.477,0.214-0.477,0.477v18.542c0,0.263,0.214,0.478,0.477,0.478h120.907c0.263,0,0.477-0.214,0.477-0.478V52.801 c0-0.263-0.214-0.477-0.477-0.477H67.546z"/><path d="M96.454,104.821H67.546c-3.02,0-5.477-2.457-5.477-5.478V87.801c0-3.02,2.457-5.477,5.477-5.477h28.907 c3.02,0,5.477,2.457,5.477,5.477v11.542C101.931,102.364,99.474,104.821,96.454,104.821z M67.546,87.324 c-0.263,0-0.477,0.214-0.477,0.477v11.542c0,0.263,0.214,0.478,0.477,0.478h28.907c0.263,0,0.477-0.214,0.477-0.478V87.801 c0-0.263-0.214-0.477-0.477-0.477H67.546z"/><path d="M142.454,104.821h-28.907c-3.02,0-5.477-2.457-5.477-5.478V87.801c0-3.02,2.457-5.477,5.477-5.477h28.907 c3.02,0,5.477,2.457,5.477,5.477v11.542C147.931,102.364,145.474,104.821,142.454,104.821z M113.546,87.324 c-0.263,0-0.477,0.214-0.477,0.477v11.542c0,0.263,0.214,0.478,0.477,0.478h28.907c0.263,0,0.477-0.214,0.477-0.478V87.801 c0-0.263-0.214-0.477-0.477-0.477H113.546z"/><path d="M188.454,104.821h-28.907c-3.02,0-5.477-2.457-5.477-5.478V87.801c0-3.02,2.457-5.477,5.477-5.477h28.907 c3.02,0,5.477,2.457,5.477,5.477v11.542C193.931,102.364,191.474,104.821,188.454,104.821z M159.546,87.324 c-0.263,0-0.477,0.214-0.477,0.477v11.542c0,0.263,0.214,0.478,0.477,0.478h28.907c0.263,0,0.477-0.214,0.477-0.478V87.801 c0-0.263-0.214-0.477-0.477-0.477H159.546z"/><path d="M140.37,116.15H115.63c-1.381,0-2.5-1.119-2.5-2.5s1.119-2.5,2.5-2.5h24.739c1.381,0,2.5,1.119,2.5,2.5 S141.75,116.15,140.37,116.15z"/><path d="M140.37,126.727H115.63c-1.381,0-2.5-1.119-2.5-2.5s1.119-2.5,2.5-2.5h24.739c1.381,0,2.5,1.119,2.5,2.5 S141.75,126.727,140.37,126.727z"/><path d="M140.37,137.303H115.63c-1.381,0-2.5-1.119-2.5-2.5s1.119-2.5,2.5-2.5h24.739c1.381,0,2.5,1.119,2.5,2.5 S141.75,137.303,140.37,137.303z"/><path d="M140.37,147.879H115.63c-1.381,0-2.5-1.119-2.5-2.5s1.119-2.5,2.5-2.5h24.739c1.381,0,2.5,1.119,2.5,2.5 S141.75,147.879,140.37,147.879z"/><path d="M94.37,116.15H69.63c-1.381,0-2.5-1.119-2.5-2.5s1.119-2.5,2.5-2.5H94.37c1.381,0,2.5,1.119,2.5,2.5 S95.75,116.15,94.37,116.15z"/><path d="M94.37,126.727H69.63c-1.381,0-2.5-1.119-2.5-2.5s1.119-2.5,2.5-2.5H94.37c1.381,0,2.5,1.119,2.5,2.5 S95.75,126.727,94.37,126.727z"/><path d="M94.37,137.303H69.63c-1.381,0-2.5-1.119-2.5-2.5s1.119-2.5,2.5-2.5H94.37c1.381,0,2.5,1.119,2.5,2.5 S95.75,137.303,94.37,137.303z"/><path d="M94.37,147.879H69.63c-1.381,0-2.5-1.119-2.5-2.5s1.119-2.5,2.5-2.5H94.37c1.381,0,2.5,1.119,2.5,2.5 S95.75,147.879,94.37,147.879z"/><path d="M186.37,116.15H161.63c-1.381,0-2.5-1.119-2.5-2.5s1.119-2.5,2.5-2.5h24.739c1.381,0,2.5,1.119,2.5,2.5 S187.75,116.15,186.37,116.15z"/><path d="M186.37,126.727H161.63c-1.381,0-2.5-1.119-2.5-2.5s1.119-2.5,2.5-2.5h24.739c1.381,0,2.5,1.119,2.5,2.5 S187.75,126.727,186.37,126.727z"/><path d="M186.37,137.303H161.63c-1.381,0-2.5-1.119-2.5-2.5s1.119-2.5,2.5-2.5h24.739c1.381,0,2.5,1.119,2.5,2.5 S187.75,137.303,186.37,137.303z"/><path d="M186.37,147.879H161.63c-1.381,0-2.5-1.119-2.5-2.5s1.119-2.5,2.5-2.5h24.739c1.381,0,2.5,1.119,2.5,2.5 S187.75,147.879,186.37,147.879z"/></g></svg>