<?xml version="1.0" encoding="iso-8859-1"?>
<!-- Generator: Adobe Illustrator 19.0.0, SVG Export Plug-In . SVG Version: 6.00 Build 0)  -->
<svg version="1.1" xmlns="http://www.w3.org/2000/svg" xmlns:xlink="http://www.w3.org/1999/xlink" x="0px" y="0px"
	 viewBox="0 0 512 512" style="enable-background:new 0 0 512 512;" xml:space="preserve">
<g id="A609_x2C__Code_x2C__Coder_x2C__Front_End_Development">
	<g>
		<polygon style="fill:#FFFFFF;" points="166,106 26,106 26,486 486,486 486,106 		"/>
		<polygon style="fill:#9BC9FF;" points="486,66 486,106 166,106 166,26 486,26 		"/>
		<rect x="96" y="226" style="fill:#9BC9FF;" width="320" height="100"/>
		<rect x="356" y="266" style="fill:#1E81CE;" width="20" height="20"/>
		<rect x="326" y="266" style="fill:#1E81CE;" width="20" height="20"/>
		<rect x="296" y="266" style="fill:#1E81CE;" width="20" height="20"/>
		<rect x="246" y="256" style="fill:#FFFFFF;" width="30" height="40"/>
		<rect x="186" y="256" style="fill:#FFFFFF;" width="30" height="40"/>
		<rect x="26" y="26" style="fill:#9BC9FF;" width="140" height="80"/>
		<rect x="126" y="256" style="fill:#FFFFFF;" width="30" height="40"/>
		<rect x="116" y="56" style="fill:#1E81CE;" width="20" height="20"/>
		<rect x="86" y="56" style="fill:#1E81CE;" width="20" height="20"/>
		<rect x="56" y="56" style="fill:#1E81CE;" width="20" height="20"/>
		<path style="fill:#1E81CE;" d="M486,496H26c-5.523,0-10-4.478-10-10V26c0-5.523,4.477-10,10-10h460c5.522,0,10,4.477,10,10v460
			C496,491.522,491.522,496,486,496z M36,476h440V36H36V476z"/>
		<path style="fill:#1E81CE;" d="M486,116H26c-5.523,0-10-4.477-10-10s4.477-10,10-10h460c5.522,0,10,4.477,10,10
			S491.522,116,486,116z"/>
		<path style="fill:#1E81CE;" d="M166,116c-5.523,0-10-4.477-10-10V26c0-5.523,4.477-10,10-10c5.523,0,10,4.477,10,10v80
			C176,111.523,171.523,116,166,116z"/>
		<path style="fill:#1E81CE;" d="M486,76H276c-5.522,0-10-4.477-10-10s4.478-10,10-10h210c5.522,0,10,4.477,10,10S491.522,76,486,76
			z"/>
		<path style="fill:#1E81CE;" d="M66,186c-5.523,0-10-4.477-10-10v-30c0-5.523,4.477-10,10-10h30c5.523,0,10,4.477,10,10
			s-4.477,10-10,10H76v20C76,181.523,71.523,186,66,186z"/>
		<path style="fill:#1E81CE;" d="M96,456H66c-5.523,0-10-4.478-10-10v-30c0-5.522,4.477-10,10-10s10,4.478,10,10v20h20
			c5.523,0,10,4.478,10,10S101.523,456,96,456z"/>
		<path style="fill:#1E81CE;" d="M446,186c-5.522,0-10-4.477-10-10v-20h-20c-5.522,0-10-4.477-10-10s4.478-10,10-10h30
			c5.522,0,10,4.477,10,10v30C456,181.523,451.522,186,446,186z"/>
		<path style="fill:#1E81CE;" d="M446,456h-30c-5.522,0-10-4.478-10-10s4.478-10,10-10h20v-20c0-5.522,4.478-10,10-10
			s10,4.478,10,10v30C456,451.522,451.522,456,446,456z"/>
		<path style="fill:#1E81CE;" d="M416,336H96c-5.523,0-10-4.478-10-10V226c0-5.523,4.477-10,10-10h320c5.522,0,10,4.477,10,10v100
			C426,331.522,421.522,336,416,336z M106,316h300v-80H106V316z"/>
		<path style="fill:#1E81CE;" d="M156,306h-30c-5.523,0-10-4.478-10-10v-40c0-5.523,4.477-10,10-10h30c5.523,0,10,4.477,10,10v40
			C166,301.522,161.523,306,156,306z M136,286h10v-20h-10V286z"/>
		<path style="fill:#1E81CE;" d="M216,306h-30c-5.523,0-10-4.478-10-10v-40c0-5.523,4.477-10,10-10h30c5.523,0,10,4.477,10,10v40
			C226,301.522,221.523,306,216,306z M196,286h10v-20h-10V286z"/>
		<path style="fill:#1E81CE;" d="M276,306h-30c-5.523,0-10-4.478-10-10v-40c0-5.523,4.477-10,10-10h30c5.522,0,10,4.477,10,10v40
			C286,301.522,281.522,306,276,306z M256,286h10v-20h-10V286z"/>
		<path style="fill:#1E81CE;" d="M186,376h-70c-5.523,0-10-4.478-10-10s4.477-10,10-10h70c5.523,0,10,4.478,10,10
			S191.523,376,186,376z"/>
		<path style="fill:#1E81CE;" d="M266,376h-30c-5.523,0-10-4.478-10-10s4.477-10,10-10h30c5.522,0,10,4.478,10,10
			S271.522,376,266,376z"/>
		<path style="fill:#1E81CE;" d="M226,416h-70c-5.523,0-10-4.478-10-10s4.477-10,10-10h70c5.523,0,10,4.478,10,10
			S231.523,416,226,416z"/>
		<path style="fill:#1E81CE;" d="M306,416h-30c-5.522,0-10-4.478-10-10s4.478-10,10-10h30c5.522,0,10,4.478,10,10
			S311.522,416,306,416z"/>
		<path style="fill:#1E81CE;" d="M396,376h-90c-5.522,0-10-4.478-10-10s4.478-10,10-10h90c5.522,0,10,4.478,10,10
			S401.522,376,396,376z"/>
	</g>
</g>
<g id="Layer_1">
</g>
</svg>