<?xml version="1.0" encoding="utf-8"?>
<!-- Generator: Adobe Illustrator 24.0.0, SVG Export Plug-In . SVG Version: 6.00 Build 0)  -->
<svg version="1.1" id="Layer_1" xmlns="http://www.w3.org/2000/svg" xmlns:xlink="http://www.w3.org/1999/xlink" x="0px" y="0px"
	 viewBox="0 0 256 256" enable-background="new 0 0 256 256" xml:space="preserve">
<g>
</g>
<g>
	<g>
		<g>
			<path fill="#F0C020" d="M61.548,29.03c-3.501-1.157-7.117-2.168-9.147-10.913c-1.87,8.055-4.865,9.498-9.147,10.913
				c6.984,2.308,8.037,6.129,9.147,10.913C54.314,31.696,57.479,30.375,61.548,29.03z"/>
			<path d="M49.965,40.508c-1.002-4.322-1.665-7.177-7.496-9.104c-2.284-0.754-2.279-3.995,0-4.748
				c3.51-1.16,5.83-1.926,7.496-9.104c0.595-2.566,4.273-2.573,4.87,0c1.697,7.309,4.214,8.029,7.497,9.104
				c2.284,0.754,2.279,3.995,0,4.748c-3.511,1.16-5.831,1.926-7.496,9.104C54.237,43.086,50.564,43.086,49.965,40.508z
				 M49.032,29.084c1.53,1.083,2.613,2.304,3.413,3.593c0.946-1.609,2.026-2.755,3.221-3.627c-1.151-0.857-2.264-2.039-3.256-3.759
				C51.424,26.996,50.29,28.187,49.032,29.084z"/>
		</g>
		<g>
			<path fill="#F0C020" d="M225.797,226.964c-3.501-1.157-7.117-2.168-9.147-10.913c-1.87,8.055-4.865,9.498-9.147,10.913
				c6.984,2.308,8.037,6.129,9.147,10.913C218.563,229.63,221.728,228.308,225.797,226.964z"/>
			<path d="M214.214,238.442c-1.002-4.322-1.665-7.177-7.496-9.104c-2.284-0.754-2.279-3.995,0-4.748
				c3.51-1.16,5.83-1.926,7.496-9.104c0.595-2.566,4.273-2.573,4.87,0c1.697,7.309,4.214,8.029,7.497,9.104
				c2.284,0.754,2.279,3.995,0,4.748c-3.511,1.16-5.831,1.926-7.496,9.104C218.486,241.02,214.813,241.02,214.214,238.442z
				 M213.281,227.018c1.53,1.083,2.613,2.304,3.413,3.593c0.946-1.609,2.026-2.755,3.221-3.627
				c-1.151-0.857-2.264-2.039-3.256-3.759C215.673,224.93,214.539,226.121,213.281,227.018z"/>
		</g>
	</g>
	<g>
		<g>
			<g>
				<path fill="#F0C020" d="M22.449,201.01h91.9v16.41c0,2.761-2.239,5-5,5h-81.9c-2.761,0-5-2.239-5-5V201.01z"/>
				<path fill="#F0C020" d="M183.279,201.01v16.41c0,2.761-2.239,5-5,5h-35.95c-2.761,0-5-2.239-5-5v-16.41H183.279z"/>
			</g>
			<g>
				<path fill="#AFAFAF" d="M239.327,180.62v15.39c0,2.76-2.24,5-5,5H22.447v-40.39h19.55c5.3,0,10.39,2.11,14.14,5.86l8.28,8.28
					c3.75,3.75,8.84,5.86,14.15,5.86H239.327z"/>
				<path fill="#7D7B79" d="M78.567,180.62h160.76v7H78.567c-7.22,0-13.99-2.81-19.1-7.91l-8.28-8.28
					c-2.46-2.46-5.72-3.81-9.19-3.81h-19.55v-7h19.55c5.3,0,10.39,2.11,14.14,5.86l8.28,8.28
					C68.167,178.51,73.257,180.62,78.567,180.62z"/>
				<path fill="#AFAFAF" d="M239.327,60.31V75.7H78.567c-5.31,0-10.4,2.11-14.15,5.86l-8.28,8.28c-3.75,3.75-8.84,5.86-14.14,5.86
					h-19.55V55.31h211.88C237.087,55.31,239.327,57.55,239.327,60.31z"/>
				<path fill="#7D7B79" d="M239.327,68.7v7H78.567c-5.31,0-10.4,2.11-14.15,5.86l-8.28,8.28c-3.75,3.75-8.84,5.86-14.14,5.86
					h-19.55v-7h19.55c3.47,0,6.73-1.35,9.19-3.81l8.28-8.28c5.11-5.1,11.88-7.91,19.1-7.91H239.327z"/>
			</g>
			<path fill="#72C2E9" d="M22.449,160.62V95.7h19.546c5.304,0,10.391-2.107,14.142-5.858l8.284-8.284
				c3.751-3.751,8.838-5.858,14.142-5.858h164.716c2.761,0,5,2.239,5,5v94.92c0,2.761-2.239,5-5,5H78.563
				c-5.304,0-10.391-2.107-14.142-5.858l-8.284-8.284c-3.751-3.751-8.838-5.858-14.142-5.858H22.449z"/>
			<g>
				<circle fill="#EFEFEF" cx="190.672" cy="128.16" r="30.578"/>
				<circle fill="#EFEFEF" cx="114.182" cy="128.16" r="30.578"/>
			</g>
		</g>
		<path fill="#F0C020" d="M22.447,147.986H9.333c-2.761,0-5-2.239-5-5v-29.653c0-2.761,2.239-5,5-5h13.114V147.986z"/>
	</g>
	<g>
		<path fill="#C5E5FE" d="M238.279,173.12H97.199c-3.303,0-3.308-5,0-5h138.58V85.7c0-3.303,5-3.308,5,0v84.92
			C240.779,172.001,239.66,173.12,238.279,173.12z M87.199,173.12h-5.532c-3.303,0-3.308-5,0-5h5.532
			C90.502,168.12,90.507,173.12,87.199,173.12z"/>
	</g>
	<circle cx="22.45" cy="182.62" r="2.5"/>
	<circle cx="77.569" cy="55.31" r="2.5"/>
	<path d="M19.95,105.83H9.33c-4.13,0.01-7.49,3.37-7.5,7.5v29.66c0.01,4.13,3.37,7.49,7.5,7.5h10.62c0,12.392,0,9.645,0,22.13
		c0,3.303,5,3.307,5,0v-9.5H42c5.312,0,9.027,2.129,12.281,4.999c2.929,2.582,5.486,5.764,8.498,8.531
		c3.898,3.582,8.56,6.47,15.78,6.47h137.67c3.296,0,3.308-4.975,0.011-5h-0.011H78.56c-5.251,0-8.961-2.129-12.232-4.999
		c-3.214-2.819-6.003-6.352-9.412-9.282c-3.755-3.226-8.262-5.72-14.915-5.72H24.95c0-22.202,0-38.375,0-59.92H42
		c6.882,0,11.467-2.667,15.299-6.052c3.079-2.721,5.671-5.907,8.578-8.546c3.382-3.071,7.189-5.402,12.683-5.402H243.28
		c1.369,0,2.489,1.13,2.5,2.5v94.92c-0.011,1.38-1.131,2.5-2.5,2.5h-7.051c-3.047,0-3.831,5,0.601,5v12.89
		c-0.011,1.37-1.13,2.5-2.5,2.5c-3.538,0-186.858,0-209.38,0v-5.89c0-3.303-5-3.307-5,0v8.39v16.41c0,4.13,3.359,7.5,7.5,7.5h81.899
		c4.13,0,7.5-3.37,7.5-7.5v-13.91h17.98v13.91c0,4.13,3.359,7.5,7.5,7.5h35.95c4.13,0,7.5-3.37,7.5-7.5v-13.91h48.55
		c4.13,0,7.489-3.37,7.5-7.5v-12.89c6.151,0,8.95-3.458,8.95-7.5V80.7c0-3.95-2.692-7.5-8.95-7.5V60.31
		c-0.011-4.13-3.37-7.5-7.5-7.5H87.569c-3.303,0-3.307,5,0,5H234.33c1.37,0,2.5,1.12,2.5,2.5V73.2H78.56
		c-7.4,0-12.119,3.043-16.086,6.754c-2.918,2.73-5.429,5.822-8.301,8.332C50.938,91.112,47.246,93.2,42,93.2H24.95V57.81h42.619
		c3.303,0,3.307-5,0-5H24.95V33.58c0-1.395-1.133-2.5-2.5-2.5H7.72c-3.303,0-3.307,5,0,5h12.23
		C19.95,47.863,19.95,98.549,19.95,105.83z M70.899,203.51h17.98v16.41h-17.98V203.51z M65.899,219.92H47.93v-16.41h17.97V219.92z
		 M24.95,217.42v-13.91h17.97v16.41H27.45C26.069,219.92,24.95,218.8,24.95,217.42z M111.85,217.42c0,1.38-1.12,2.5-2.5,2.5H93.88
		v-16.41h17.97V217.42z M139.83,217.42v-13.91h17.97v16.41h-15.47C140.95,219.92,139.83,218.8,139.83,217.42z M180.78,217.42
		c0,1.38-1.131,2.5-2.5,2.5H162.81v-16.41h17.971V217.42z M9.33,145.49c-1.37-0.01-2.49-1.13-2.5-2.5v-29.66
		c0.01-1.37,1.13-2.49,2.5-2.5h10.62v34.66H9.33z"/>
	<circle cx="226.229" cy="180.62" r="2.5"/>
	<path d="M157.582,128.158c-0.001,18.195,14.728,32.996,32.92,33.089c18.194,0.093,33.07-14.559,33.255-32.75
		c0.186-18.257-14.491-33.243-32.757-33.424C172.615,94.891,157.583,109.769,157.582,128.158z M211.934,109.898l-16.521,9.363
		c-0.763-0.409-1.586-0.715-2.45-0.917l4.792-17.341C203.35,102.474,208.265,105.635,211.934,109.898z M190.67,133.25
		c-2.8,0-5.08-2.29-5.09-5.09c0.01-2.8,2.29-5.09,5.09-5.09s5.09,2.29,5.09,5.09C195.76,130.96,193.47,133.25,190.67,133.25z
		 M192.798,100.173l-5.067,18.337c-0.846,0.259-1.641,0.633-2.378,1.092l-8.859-15.633
		C181.289,101.14,186.92,99.718,192.798,100.173z M172.41,106.898l9.361,16.518c-0.409,0.763-0.715,1.586-0.917,2.449l-17.341-4.792
		C164.986,115.483,168.147,110.567,172.41,106.898z M162.683,126.032l18.337,5.068c0.259,0.846,0.632,1.64,1.092,2.377
		l-15.635,8.861C163.641,137.528,162.228,131.893,162.683,126.032z M169.406,146.421l16.52-9.362
		c0.763,0.409,1.586,0.716,2.449,0.918l-4.792,17.341C177.991,153.845,173.075,150.685,169.406,146.421z M188.542,156.147
		l5.068-18.337c0.845-0.258,1.638-0.631,2.373-1.09l8.865,15.634C200.049,155.183,194.414,156.602,188.542,156.147z
		 M208.942,149.418l-9.373-16.516c0.408-0.763,0.715-1.585,0.917-2.448l17.342,4.792
		C216.357,140.837,213.201,145.75,208.942,149.418z M218.657,130.288l-18.337-5.068c-0.259-0.847-0.633-1.641-1.093-2.378
		l15.632-8.866C217.692,118.777,219.112,124.411,218.657,130.288z"/>
	<path d="M38.67,112.99H34c-3.303,0-3.307,5,0,5h4.67C41.973,117.99,41.977,112.99,38.67,112.99z"/>
	<path d="M38.67,125.66H34c-3.303,0-3.307,5,0,5h4.67C41.973,130.66,41.977,125.66,38.67,125.66z"/>
	<path d="M38.67,138.33H34c-3.303,0-3.307,5,0,5h4.67C41.973,143.33,41.977,138.33,38.67,138.33z"/>
	<path d="M81.082,128.158c-0.001,18.195,14.728,32.996,32.92,33.089c18.194,0.093,33.07-14.559,33.255-32.75
		c0.186-18.257-14.491-33.243-32.757-33.424C96.115,94.891,81.083,109.769,81.082,128.158z M135.434,109.898l-16.521,9.363
		c-0.763-0.409-1.586-0.715-2.45-0.917l4.792-17.341C126.85,102.474,131.765,105.635,135.434,109.898z M114.17,133.25
		c-2.8,0-5.08-2.29-5.09-5.09c0.01-2.8,2.29-5.09,5.09-5.09s5.09,2.29,5.09,5.09C119.26,130.96,116.97,133.25,114.17,133.25z
		 M116.298,100.173l-5.067,18.337c-0.846,0.259-1.641,0.633-2.378,1.092l-8.859-15.633
		C104.789,101.14,110.42,99.718,116.298,100.173z M95.91,106.898l9.361,16.518c-0.409,0.763-0.715,1.586-0.917,2.449l-17.341-4.792
		C88.486,115.483,91.647,110.567,95.91,106.898z M86.183,126.032l18.337,5.068c0.259,0.846,0.632,1.64,1.092,2.377l-15.635,8.861
		C87.141,137.528,85.728,131.893,86.183,126.032z M92.906,146.421l16.52-9.362c0.763,0.409,1.586,0.716,2.449,0.918l-4.792,17.341
		C101.491,153.845,96.575,150.685,92.906,146.421z M112.042,156.147l5.068-18.337c0.845-0.258,1.638-0.631,2.373-1.09l8.865,15.634
		C123.549,155.183,117.914,156.602,112.042,156.147z M132.442,149.418l-9.373-16.516c0.408-0.763,0.715-1.585,0.917-2.448
		l17.342,4.792C139.857,140.837,136.701,145.75,132.442,149.418z M142.157,130.288l-18.337-5.068
		c-0.259-0.847-0.633-1.641-1.093-2.378l15.632-8.866C141.192,118.777,142.612,124.411,142.157,130.288z"/>
</g>
</svg>