<svg xmlns="http://www.w3.org/2000/svg"  viewBox="0 0 64 64" width="512px" height="512px">
  
  <title>Graphics Card icon</title>
<desc>Graphics Card icon for website, application, printing, document, poster design, etc.</desc>
<metadata><?xpacket begin="﻿" id="W5M0MpCehiHzreSzNTczkc9d"?>
<x:xmpmeta xmlns:x="adobe:ns:meta/" x:xmptk="Adobe XMP Core 5.6-c148 79.163858, 2019/03/06-03:18:36        ">
   <rdf:RDF xmlns:rdf="http://www.w3.org/1999/02/22-rdf-syntax-ns#">
      <rdf:Description rdf:about=""
            xmlns:dc="http://purl.org/dc/elements/1.1/">
         <dc:title>
            <rdf:Alt>
               <rdf:li xml:lang="x-default">Graphics Card icon</rdf:li>
            </rdf:Alt>
         </dc:title>
         <dc:description>
            <rdf:Alt>
               <rdf:li xml:lang="x-default">Graphics Card icon for website, application, printing, document, poster design, etc.</rdf:li>
            </rdf:Alt>
         </dc:description>
         <dc:subject>
            <rdf:Bag>
               <rdf:li xml:lang="x-default">Graphics</rdf:li>
               <rdf:li>Card</rdf:li>
               <rdf:li>video</rdf:li>
               <rdf:li>card</rdf:li>
               <rdf:li>hardware</rdf:li>
            </rdf:Bag>
         </dc:subject>
      </rdf:Description>
   </rdf:RDF>
</x:xmpmeta>
                                                                                                    
                                                                                                    
                                                                                                    
                                                                                                    
                                                                                                    
                                                                                                    
                                                                                                    
                                                                                                    
                                                                                                    
                                                                                                    
                                                                                                    
                                                                                                    
                                                                                                    
                                                                                                    
                                                                                                    
                                                                                                    
                                                                                                    
                                                                                                    
                                                                                                    
                                                                                                    
                           
<?xpacket end="w"?></metadata>
<g id="Fill_Outline" data-name="Fill Outline">
    <g id="Colors">
      <g>
        <rect x="3" y="22" width="6" height="8" style="fill: #f9e109"/>
        <path d="M3,9v4H7a2,2,0,0,1,2,2V55h4V15A6,6,0,0,0,7,9Z" style="fill: #d0d8da"/>
        <path d="M13,19H61a0,0,0,0,1,0,0V43a4,4,0,0,1-4,4H13a0,0,0,0,1,0,0V19A0,0,0,0,1,13,19Z" style="fill: #d0d8da"/>
        <path d="M27,19V39a8,8,0,0,1-8-8V19H13V47H57a4,4,0,0,0,4-4V19Z" style="fill: #93999a"/>
        <g>
          <rect x="29" y="15" width="32" height="28" rx="4" style="fill: #57b7eb"/>
          <path d="M52,36A16,16,0,0,1,36,20V15H33a4,4,0,0,0-4,4V39a4,4,0,0,0,4,4H57a4,4,0,0,0,4-4V36Z" style="fill: #4891d3"/>
          <circle cx="47" cy="29" r="10" style="fill: #f9e109"/>
          <circle cx="47" cy="29" r="2" style="fill: #e59730"/>
          <rect x="29" y="23" width="4" height="4" style="fill: #fcbc04"/>
          <rect x="29" y="31" width="4" height="4" style="fill: #fcbc04"/>
          <path d="M45,22a10,10,0,0,1,9.193,13.937A10,10,0,1,0,37.808,25.063,9.959,9.959,0,0,1,45,22Z" style="fill: #fcbc04"/>
          <path d="M30,23H29v4h4V26A3,3,0,0,1,30,23Z" style="fill: #e59730"/>
          <path d="M30,31H29v4h4V34A3,3,0,0,1,30,31Z" style="fill: #e59730"/>
        </g>
        <g>
          <rect x="17" y="24" width="4" height="4" style="fill: #f9e109"/>
          <rect x="17" y="32" width="4" height="10" style="fill: #f9e109"/>
          <rect x="17" y="24" width="2" height="4" style="fill: #fcbc04"/>
          <path d="M17,42h4V36.279A7.958,7.958,0,0,1,19.069,32H17Z" style="fill: #fcbc04"/>
        </g>
        <rect x="19" y="47" width="16" height="4" style="fill: #f9e109"/>
        <rect x="39" y="47" width="12" height="4" style="fill: #f9e109"/>
        <rect x="5" y="42" width="4" height="6" style="fill: #f9e109"/>
        <path d="M39,47v2h8a2,2,0,0,1,2,2h2V47Z" style="fill: #fcbc04"/>
        <path d="M19,47v2H31a2,2,0,0,1,2,2h2V47Z" style="fill: #fcbc04"/>
        <path d="M7,42v2a2,2,0,0,1-2,2v2H9V42Z" style="fill: #fcbc04"/>
        <path d="M7,22v3a3,3,0,0,1-3,3H3v2H9V22Z" style="fill: #fcbc04"/>
        <path d="M11,47V15a4,4,0,0,0-4-4H7A2,2,0,0,1,5,9H3v4H7a2,2,0,0,1,2,2V55h4V49A2,2,0,0,1,11,47Z" style="fill: #93999a"/>
        <path d="M53,35A15.99,15.99,0,0,1,38.029,24.6,9.988,9.988,0,0,0,54.986,35Z" style="fill: #fcbc04"/>
      </g>
    </g>
    <g id="Outline_copy" data-name="Outline copy">
      <g>
        <path d="M47,18A11,11,0,1,0,58,29,11.013,11.013,0,0,0,47,18ZM38.033,28.356A8.926,8.926,0,0,1,39.67,23.8a10.007,10.007,0,0,0,4.488,4.287c-.024.073-.05.144-.068.22A7.976,7.976,0,0,1,38.033,28.356ZM47,28a1,1,0,1,1-1,1A1,1,0,0,1,47,28Zm.916-1.842c-.073-.023-.144-.05-.22-.068a7.976,7.976,0,0,1-.052-6.057A8.926,8.926,0,0,1,52.2,21.67,10.007,10.007,0,0,0,47.916,26.158Zm-2.278.184c-.068.035-.136.069-.2.109a7.979,7.979,0,0,1-4.323-4.245,8.967,8.967,0,0,1,4.382-2.07A10.005,10.005,0,0,0,45.638,26.342Zm.446,5.5c.073.023.144.05.22.068a7.976,7.976,0,0,1,.052,6.057A8.926,8.926,0,0,1,41.8,36.33,10.007,10.007,0,0,0,46.084,31.842Zm2.278-.184c.068-.035.136-.069.2-.109a7.979,7.979,0,0,1,4.323,4.245,8.967,8.967,0,0,1-4.382,2.07A10.005,10.005,0,0,0,48.362,31.658Zm1.48-1.742c.024-.073.05-.144.068-.22a7.976,7.976,0,0,1,6.057-.052A8.926,8.926,0,0,1,54.33,34.2,10.007,10.007,0,0,0,49.842,29.916Zm-.184-2.278c-.035-.068-.07-.136-.109-.2a7.977,7.977,0,0,1,4.245-4.322,8.963,8.963,0,0,1,2.07,4.381A10.005,10.005,0,0,0,49.658,27.638ZM38.136,30.5a9.835,9.835,0,0,0,6.206-.142c.035.068.07.136.109.2a7.977,7.977,0,0,1-4.245,4.322A8.963,8.963,0,0,1,38.136,30.5Z" style="fill: #1f2d51"/>
        <circle cx="57" cy="39" r="1" style="fill: #1f2d51"/>
        <circle cx="57" cy="19" r="1" style="fill: #1f2d51"/>
        <circle cx="33" cy="39" r="1" style="fill: #1f2d51"/>
        <circle cx="33" cy="19" r="1" style="fill: #1f2d51"/>
        <path d="M62,19a5.006,5.006,0,0,0-5-5H48a1,1,0,0,0,0,2h9a3,3,0,0,1,3,3V39a3,3,0,0,1-3,3H41a1,1,0,0,0,0,2H57a4.948,4.948,0,0,0,3-1.026V43a3,3,0,0,1-3,3H14V20H25a1,1,0,0,0,0-2H14V15A7.008,7.008,0,0,0,7,8H3A1,1,0,0,0,2,9v4a1,1,0,0,0,1,1H7a1,1,0,0,1,1,1v2H5a1,1,0,0,0,0,2H8v2H3a1,1,0,0,0-1,1v8a1,1,0,0,0,1,1H8v2H5a1,1,0,0,0,0,2H8v2H6a1,1,0,0,0,0,2H8v2H5a1,1,0,0,0-1,1v6a1,1,0,0,0,1,1H8v2H6a1,1,0,0,0,0,2H8v2a1,1,0,0,0,1,1h4a1,1,0,0,0,1-1V48h4v3a1,1,0,0,0,1,1H35a1,1,0,0,0,1-1V48h2v3a1,1,0,0,0,1,1H51a1,1,0,0,0,1-1V48h5a5.006,5.006,0,0,0,5-5ZM4,29V23H8v6ZM6,47V43H8v4Zm6,7H10V15a3,3,0,0,0-3-3H4V10H7a5.006,5.006,0,0,1,5,5Zm34-6v2H44V48ZM28,48h2v2H28Zm-2,2H24V48h2Zm-6-2h2v2H20Zm14,2H32V48h2Zm6-2h2v2H40Zm10,2H48V48h2Z" style="fill: #1f2d51"/>
        <path d="M33,44h4a1,1,0,0,0,0-2H33a3,3,0,0,1-3-3V36h3a1,1,0,0,0,1-1V31a1,1,0,0,0-1-1H30V28h3a1,1,0,0,0,1-1V23a1,1,0,0,0-1-1H30V19a3,3,0,0,1,3-3H44a1,1,0,0,0,0-2H33a5.006,5.006,0,0,0-5,5V39A5.006,5.006,0,0,0,33,44ZM32,32v2H30V32Zm0-8v2H30V24Z" style="fill: #1f2d51"/>
        <path d="M22,24a1,1,0,0,0-1-1H17a1,1,0,0,0-1,1v4a1,1,0,0,0,1,1h4a1,1,0,0,0,1-1Zm-2,3H18V25h2Z" style="fill: #1f2d51"/>
        <path d="M21,31H17a1,1,0,0,0-1,1V42a1,1,0,0,0,1,1h4a1,1,0,0,0,1-1V32A1,1,0,0,0,21,31ZM20,41H18V33h2Z" style="fill: #1f2d51"/>
        <path d="M26,29a1,1,0,0,0-2,0v7a1,1,0,0,0,2,0Z" style="fill: #1f2d51"/>
        <path d="M25,39a1,1,0,0,0-1,1v2a1,1,0,0,0,2,0V40A1,1,0,0,0,25,39Z" style="fill: #1f2d51"/>
        <circle cx="25" cy="25" r="1" style="fill: #1f2d51"/>
      </g>
    </g>
  </g>
</svg>