<svg xmlns="http://www.w3.org/2000/svg" xmlns:xlink="http://www.w3.org/1999/xlink" version="1.1" width="1000" height="1000" viewBox="0 0 1000 1000" xml:space="preserve">
<desc>Created with Fabric.js 3.5.0</desc>
<defs>
</defs>
<rect x="0" y="0" width="100%" height="100%" fill="rgba(255,255,255,0)"/>
<g transform="matrix(3.1636 0 0 3.2236 499.9975 498.7477)" id="245007">
<path style="stroke: none; stroke-width: 0; stroke-dasharray: none; stroke-linecap: butt; stroke-dashoffset: 0; stroke-linejoin: miter; stroke-miterlimit: 4; is-custom-font: none; font-file-url: none; fill: rgb(38,23,20); fill-rule: nonzero; opacity: 1;" vector-effect="non-scaling-stroke" transform=" translate(-128, -154.7176)" d="M 218.281037 90.106412 C 268.572988 140.398363 268.572988 221.075034 218.281037 271.716235 C 169.036835 322.008186 88.0109141 322.008186 37.7189632 271.716235 C -12.5729877 221.424284 -12.5729877 140.398363 37.7189632 90.106412 L 127.825375 0 L 127.825375 45.053206 L 119.443383 53.4351978 L 59.7216917 113.156889 C 22.0027285 150.177353 22.0027285 210.946794 59.7216917 248.665757 C 96.7421555 286.38472 157.511596 286.38472 195.230559 248.665757 C 232.949523 211.645293 232.949523 150.875853 195.230559 113.156889 L 218.281037 90.106412 Z M 173.227831 84.5184175 C 163.969338 84.5184175 156.463847 77.0129263 156.463847 67.7544338 C 156.463847 58.4959413 163.969338 50.9904502 173.227831 50.9904502 C 182.486323 50.9904502 189.991814 58.4959413 189.991814 67.7544338 C 189.991814 77.0129263 182.486323 84.5184175 173.227831 84.5184175 Z" stroke-linecap="round"/>
</g>
</svg>